# xmcd
#
# Track frame offsets: 
#        150
#        15200
#        29139
#        47331
#        62714
#        75914
#        93121
#        107990
#        128969
#        141184
#        156183
#        177183
#        193683
#        209358
#        225129
#        242296
#
# Disc length: 3435 seconds
#
# Revision: 0
# Processed by: cddbd v1.5.2PL0 Copyright (c) Steve Scherf et al.
# Submitted via: ExactAudioCopy v1.0b3
#
DISCID=bf0d6910
DTITLE=Магелланово Облако - Магелланово Облако
DYEAR=2013
DGENRE=Blues
TTITLE0=Когда
TTITLE1=Два океана
TTITLE2=О чем печалится Луна
TTITLE3=Взлетная полоса
TTITLE4=Долгое небо
TTITLE5=Никогда
TTITLE6=Кто-то самый светлый
TTITLE7=Битое стекло
TTITLE8=Твой дом
TTITLE9=Просто
TTITLE10=Волны
TTITLE11=Сказочная птица
TTITLE12=Верни
TTITLE13=Каменное сердце
TTITLE14=Останься
TTITLE15=Снился мне сад
EXTD=
EXTT0=
EXTT1=
EXTT2=
EXTT3=
EXTT4=
EXTT5=
EXTT6=
EXTT7=
EXTT8=
EXTT9=
EXTT10=
EXTT11=
EXTT12=
EXTT13=
EXTT14=
EXTT15=
PLAYORDER=
